*
G04 Job   : C:\Projects\3. 12th May to\2. Siemens\2. Daves Training\ShrouksSnowflake\PCB\Board1.pcb*
G04 User  : DESKTOP-H15QKG3:shrou*
G04 Layer : EtchLayer1Top.gdo*
G04 Date  : Fri Dec 05 17:28:02 2025*
G04 Mentor Graphics Example Gerber Output Definition*
%ICAS*%
%MOIN*%
%FSLAX26Y26*%
%OFA0.0000B0.0000*%
G90*
G74*
%AMVB_RECTANGLE*
21,1,$1,$2,0,0,$3*
%
%AMVB_RCRECTANGLE*
$3=$3X2*
21,1,$1-$3,$2,0,0,0*
21,1,$1,$2-$3,0,0,0*
$1=$1/2*
$2=$2/2*
$3=$3/2*
$1=$1-$3*
$2=$2-$3*
1,1,$3X2,0-$1,0-$2*
1,1,$3X2,0-$1,$2*
1,1,$3X2,$1,$2*
1,1,$3X2,$1,0-$2*
%
%ADD11C,0.01000*%
%ADD12C,0.02600*%
%ADD10C,0.02953*%
%ADD17VB_RECTANGLE,0.03740X0.03740X30.00000*%
%ADD16VB_RECTANGLE,0.03740X0.03740X90.00000*%
%ADD18VB_RECTANGLE,0.03740X0.03740X148.00000*%
%ADD13VB_RECTANGLE,0.05709X0.03740X180.00000*%
%ADD15VB_RECTANGLE,0.05709X0.03740X58.00000*%
%ADD14VB_RECTANGLE,0.05709X0.03740X120.00000*%
%ADD19VB_RCRECTANGLE,0.14961X0.13386X0.00394*%
G01*
G36*
X-151180Y-881890D02*
X151180D01*
Y302361*
X-151180*
Y-881890*
D02*
X151180D01*
Y-579527*
X-151180*
Y-881890*
X-125983Y478740D02*
X125983D01*
Y856692*
X-125983*
Y478740*
G37*
G54D10*
X-1275676Y-728945D02*
X-1280075Y-729198D01*
X-1345635Y-767050*
X-1233387Y720862D02*
X-1235770Y724477D01*
X-1283670Y754408*
X-1024958Y584352D02*
X-1019698Y585341D01*
X-962827Y549805*
X-1024427Y-585235D02*
X-965243Y-550713D01*
X-1024427Y-585235D02*
X-813048Y-478945*
X-822022Y-471275D01*
X-872046Y-500156*
X-783387Y470862D02*
X-794028Y461263D01*
X-845300Y487301*
X-574958Y334352D02*
X-570428Y334172D01*
X-510943Y297002*
X-574427Y-335235D02*
X-569165Y-336476D01*
X-509023Y-301753*
X-1750Y1345595D02*
Y1416535D01*
X0Y1418285*
Y1420471*
Y-1839370D02*
Y-1920291D01*
Y-1497672D02*
Y-1570471D01*
Y-1289370D02*
X907Y-1290277D01*
Y-1373112*
X0Y-938530D02*
Y-1020471D01*
Y920471D02*
X2312Y918160D01*
Y836535*
X0Y834222*
Y800000*
Y1189370D02*
Y1263153D01*
Y1689370D02*
X-35Y1689405D01*
Y1759115*
X565018Y-326476D02*
X563766Y-321051D01*
X513990Y-282977*
X582608Y325353D02*
X577230Y326795D01*
X508180Y290117*
X777656Y-455410D02*
X785462Y-450347D01*
X836765Y-482405*
X790547Y451370D02*
X793236Y454587D01*
X854640Y490038*
X1013335Y-576476D02*
X1007910Y-577728D01*
X957282Y-547298*
X1021665Y587140D02*
X1020070Y582028D01*
X957925Y546150*
X1227656Y-705410D02*
X1231480Y-706721D01*
X1289282Y-742841*
X1242276Y709802D02*
X1242275D01*
X1242276D02*
X1249035Y705970D01*
X1308180Y740117*
X1306355Y741943*
G54D11*
X-1166611Y679136D02*
X-1075571Y-614763*
X-1207485Y-689575D01*
X-1075040Y615646D02*
X-1166611Y679136D01*
X-716611Y429136D02*
X-714021Y431726D01*
X-651506Y392112*
X-625570Y-364763D02*
X-744857Y-439575D01*
X-625040Y365646D02*
X-632197Y380047D01*
X-651506Y392112*
X0Y-1760630D02*
Y-1629527D01*
Y-1210630D02*
Y-1079527D01*
Y1110630D02*
Y979527D01*
Y1479527D02*
X-2415Y1481941D01*
Y1608215*
X0Y1610630*
X633752Y354881D02*
X722356Y412000D01*
X710880Y-413683D02*
X615100Y-357770D01*
X710880Y-413683D02*
X1072808Y616667*
X1174085Y670432D01*
X1160880Y-663683D02*
X1063416Y-607770D01*
G54D12*
X-1345635Y-767050D03*
X-1283670Y754408D03*
X-965243Y-550713D03*
X-962827Y549805D03*
X-872046Y-500156D03*
X-845300Y487301D03*
X-510943Y297002D03*
X-509023Y-301753D03*
X-100000Y-850000D03*
Y-500000D03*
Y-50000D03*
Y100000D03*
Y250000D03*
X-75881Y549647D03*
X-66285Y836535D03*
X-1750Y1345595D03*
X-35Y1759115D03*
X0Y-1920291D03*
Y-1497672D03*
Y-938530D03*
Y-800000D03*
Y-500000D03*
Y-50000D03*
Y100000D03*
Y250000D03*
Y800000D03*
Y1263153D03*
X907Y-1373112D03*
X61243Y836535D03*
X68125Y549647D03*
X100000Y-850000D03*
Y-500000D03*
Y-50000D03*
Y100000D03*
Y250000D03*
X508180Y290117D03*
X513990Y-282977D03*
X836765Y-482405D03*
X854640Y490038D03*
X957282Y-547298D03*
X957925Y546150D03*
X1289282Y-742841D03*
X1308180Y740117D03*
G54D13*
X0Y-1839370D03*
Y-1760630D03*
Y-1289370D03*
Y-1210630D03*
Y1110630D03*
Y1189370D03*
Y1610630D03*
Y1689370D03*
G54D14*
X-1275676Y-728945D03*
X-1207485Y-689575D03*
X-813048Y-478945D03*
X-744857Y-439575D03*
X722356Y412000D03*
X790547Y451370D03*
X1174085Y670432D03*
X1242276Y709802D03*
G54D15*
X-1233387Y720862D03*
X-1166611Y679136D03*
X-783387Y470862D03*
X-716611Y429136D03*
X710880Y-413683D03*
X777656Y-455410D03*
X1160880Y-663683D03*
X1227656Y-705410D03*
G54D16*
X0Y-1629527D03*
Y-1570471D03*
Y-1079527D03*
Y-1020471D03*
Y920471D03*
Y979527D03*
Y1420471D03*
Y1479527D03*
G54D17*
X-1075571Y-614763D03*
X-1024427Y-585235D03*
X-625570Y-364763D03*
X-574427Y-335235D03*
X582608Y325353D03*
X633752Y354881D03*
X1021665Y587140D03*
X1072808Y616667D03*
G54D18*
X-1075040Y615646D03*
X-1024958Y584352D03*
X-625040Y365646D03*
X-574958Y334352D03*
X565018Y-326476D03*
X615100Y-357770D03*
X1013335Y-576476D03*
X1063416Y-607770D03*
G54D19*
X0Y-677165D03*
Y677165D03*
M02*
