*
G04 Job   : C:\Projects\3. 12th May to\2. Siemens\2. Daves Training\ShrouksSnowflake\PCB\Board1.pcb*
G04 User  : DESKTOP-H15QKG3:shrou*
G04 Layer : GeneratedSilkscreenBottom.gdo*
G04 Date  : Fri Dec 05 17:28:02 2025*
G04 Mentor Graphics Example Gerber Output Definition*
%ICAS*%
%MOIN*%
%FSLAX26Y26*%
%OFA0.0000B0.0000*%
G90*
G74*
%ADD11C,0.00472*%
%ADD10C,0.00984*%
%ADD12C,0.01000*%
G01*
G54D10*
X-56165Y-1347095D02*
Y-1296237D01*
Y-1276862D02*
Y-1226005D01*
Y-1206630D02*
Y-1155772D01*
Y-1136397D02*
Y-1085540D01*
X-29525Y-2040945D02*
X50393D01*
X-29525Y-2015515*
X50393Y-1990086*
X-29525*
X-25892Y-1385845D02*
X-29525Y-1387055D01*
X-25892Y-1389477*
X-22260Y-1387055*
X-25892Y-1385845*
X-33158*
X-40423Y-1387055*
X-44056Y-1389477*
X-22260Y-1063743D02*
X-25892Y-1066165D01*
X-29525Y-1063743*
X-25892Y-1062532*
X-22260Y-1063743*
X746Y-1970711D02*
Y-1919853D01*
X8011*
X15276Y-1923486*
X18910Y-1928330*
X22542Y-1936806*
Y-1950126*
X18910Y-1958602*
X11645Y-1967080*
X746Y-1970711*
X-7730*
X-18627Y-1967080*
X-25892Y-1958602*
X-29525Y-1950126*
Y-1936806*
X-25892Y-1928330*
X-18627Y-1919853*
X746Y-1900480D02*
X11645Y-1894425D01*
X18910Y-1882315*
X22542Y-1868995*
Y-1849621*
X746Y-1830246D02*
X11645Y-1824192D01*
X18910Y-1812083*
X22542Y-1798763*
Y-1779388*
X8011Y-1600175D02*
X18910Y-1594120D01*
X22542Y-1589276*
Y-1582011*
X18910Y-1577167*
X8011Y-1574745*
X-29525*
X8011D02*
X18910Y-1567480D01*
X22542Y-1563847*
Y-1556582*
X18910Y-1551738*
X8011Y-1549316*
X-29525*
X11645Y-1479085D02*
X18910Y-1487560D01*
X22542Y-1496036*
Y-1509356*
X18910Y-1517833*
X11645Y-1526310*
X746Y-1529942*
X-7730*
X-18627Y-1526310*
X-25892Y-1517833*
X-29525Y-1509356*
Y-1496036*
X-25892Y-1487560*
X-18627Y-1479085*
X11645Y-1408851D02*
X18910Y-1413695D01*
X22542Y-1427015*
Y-1441546*
X18910Y-1456076*
X11645Y-1459710*
X4378Y-1456076*
X746Y-1446390*
X-2885Y-1423382*
X-7730Y-1413695*
X-14995Y-1408851*
X-18627*
X-25892Y-1413695*
X-29525Y-1427015*
Y-1441546*
X-25892Y-1456076*
X-18627Y-1459710*
X22542Y-1900480D02*
X-29525D01*
X22542Y-1830246D02*
X-29525D01*
X22542Y-1756381D02*
X-29525Y-1733375D01*
X22542Y-1709156D02*
X-29525Y-1733375D01*
X-45267Y-1740640*
X-52532Y-1749116*
X-56165Y-1756381*
Y-1760015*
X22542Y-1600175D02*
X-29525D01*
X22542Y-1479085D02*
X-29525D01*
X50393Y-1670407D02*
X-29525Y-1619550D01*
X50393D02*
X-29525Y-1670407D01*
X50393Y-1063743D02*
X-2885D01*
G54D11*
X-78740Y748030D02*
Y483987D01*
G03X-490350Y0I78740J483987*
X-78740Y-483987I490350*
G01Y-748030*
X78740*
Y-483987*
G03X490350Y0I78740J483987*
X78740Y483987I490350*
G01Y748030*
X-78740*
X-23620Y42807D02*
X23620D01*
X-23620Y56335D02*
Y29278D01*
X-22905Y-82812D02*
X-20757Y-77015D01*
X-14315Y-73150*
X-2862Y-71216*
X3578*
X15031Y-73150*
X21473Y-77015*
X23620Y-82812*
Y-86677*
X21473Y-92475*
X15031Y-96340*
X3578Y-98273*
X-2862*
X-14315Y-96340*
X-20757Y-92475*
X-22905Y-86677*
Y-82812*
Y-40295D02*
X-20757Y-34496D01*
X-14315Y-30631*
X-2862Y-28698*
X3578*
X15031Y-30631*
X21473Y-34496*
X23620Y-40295*
Y-44160*
X21473Y-49957*
X15031Y-53823*
X3578Y-55755*
X-2862*
X-14315Y-53823*
X-20757Y-49957*
X-22905Y-44160*
Y-40295*
X-12167Y11885D02*
X-14315D01*
X-18610Y9952*
X-20757Y8020*
X-23620Y4155*
Y-3575*
X-20757Y-7440*
X-18610Y-9372*
X-14315Y-11305*
X-10020*
X-5725Y-9372*
X1431Y-5507*
X23620Y13817*
Y-13237*
X-715Y98853D02*
Y81460D01*
X1431Y75661*
X3578Y73730*
X7873Y71796*
X15031*
X19325Y73730*
X21473Y75661*
X23620Y81460*
Y98853*
X-23620*
Y81460*
X-20757Y75661*
X-18610Y73730*
X-14315Y71796*
X-10020*
X-5725Y73730*
X-2862Y75661*
X-715Y81460*
G54D12*
X-187520Y-587500D02*
X-177927Y-803325D01*
G02X-177888Y-805072I39330J1747*
X-189420Y-832911I39370*
G01X-670351Y-1313843*
G03X-710711Y-1411280I97432J97436*
X-670351Y-1508715I137792*
X-572915Y-1549075I97435J97432*
X-475480Y-1508715J137792*
G01X-223775Y-1257010*
G02X-195935Y-1245478I27839J27838*
X-156603Y-1283100J39370*
G01X-153215Y-1359338*
G02X-153176Y-1361086I39330J1747*
X-164707Y-1388925I39370*
G01X-424288Y-1648506*
G03X-458883Y-1732022I83513J83516*
X-424288Y-1815540I118108*
X-340772Y-1850133I83515J83514*
X-257255Y-1815540J118107*
G01X-201431Y-1759715*
G02X-173592Y-1748183I27838J27837*
X-134261Y-1785805J39370*
G01X-125686Y-1978738*
G03X-2332Y-2096731I123353J5482*
X121020Y-1978738J123475*
G01X129763Y-1782015*
G02X165296Y-1748025I35532J1578*
X190447Y-1758442J35567*
G01X247545Y-1815541*
G03X331062Y-1850135I83517J83513*
X414578Y-1815541J118107*
X449173Y-1732025I83512J83516*
X414578Y-1648508I118107*
G01X159826Y-1393756*
G02X148295Y-1365917I27839J27838*
X148335Y-1364170I39370*
G01X151937Y-1283100*
G02X191268Y-1245478I39330J1747*
X219107Y-1257010J39370*
G01X470813Y-1508715*
G03X568250Y-1549075I97436J97432*
X665685Y-1508715J137792*
X706045Y-1411280I97432J97435*
X665685Y-1313843I137792*
G01X184753Y-832911*
G02X173222Y-805072I27839J27838*
X173261Y-803325I39370*
G01X182853Y-587500*
G02X208152Y-552463I39331J1747*
G03X370267Y-458866I210483J551763*
G02X395107Y-450040I24840J30544*
X413260Y-454475J39370*
G01X604965Y-554080*
G02X624841Y-578826I18151J34935*
G01X800875Y-1235791*
G03X933973Y-1337923I133097J35660*
X969640Y-1333227J137792*
X1071770Y-1200128I35662J133099*
X1067075Y-1164463I137792*
G01X974945Y-820626*
G02X973602Y-810437I38027J10188*
X1012972Y-771066I39370*
X1031125Y-775501J39371*
G01X1098843Y-810685*
G02X1118720Y-835432I18152J34935*
G01X1213733Y-1190026*
G03X1327817Y-1277567I114084J30566*
X1358388Y-1273542J118107*
X1445930Y-1159458I30567J114084*
X1441905Y-1128887I118108*
G01X1421471Y-1052630*
G02X1420130Y-1042440I38029J10190*
X1459500Y-1003070I39370*
X1477652Y-1007505J39370*
G01X1649025Y-1096545*
G03X1705953Y-1110452I56928J109569*
X1812886Y-1048715J123476*
X1829428Y-986976I106932J61738*
X1772377Y-882890I123475*
G01X1606381Y-776955*
G02X1589947Y-746972I19134J29982*
X1616310Y-712616I35567*
G01X1694307Y-691717*
G03X1781850Y-577632I30567J114085*
X1777825Y-547062I118109*
X1663740Y-459520I114084J30565*
X1633170Y-463545J118107*
G01X1285171Y-556791*
G02X1274982Y-558132I10188J38028*
X1253802Y-551950J39370*
G01X1185395Y-508295*
G02X1167205Y-475107I21180J33187*
X1196385Y-437078I39370*
G01X1540222Y-344948*
G03X1642355Y-211850I35662J133098*
X1637658Y-176185I137794*
X1504560Y-74052I133098J35660*
X1468895Y-78748J137792*
G01X811928Y-254781*
G02X801740Y-256123I10188J38027*
X780560Y-249940J39370*
G01X598446Y-133721*
G02X580255Y-100533I21179J33187*
X580753Y-94293I39370*
G03X588217Y-697I583080J93595*
G01Y-696*
Y-695*
G03X580753Y92900I590543*
G02X580255Y99140I38872J6240*
X598446Y132327I39370*
G01X780560Y248546*
G02X801740Y254728I21180J33187*
X811928Y253387J39370*
G01X1468895Y77355*
G03X1504560Y72658I35665J133096*
X1637658Y174790J137792*
X1642355Y210455I133097J35665*
X1540222Y343555I137794*
G01X1196385Y435685*
G02X1167205Y473713I10190J38028*
X1185395Y506901I39370*
G01X1249726Y547955*
G02X1270905Y554137I21179J33187*
X1281095Y552795J39370*
G01X1635690Y457782*
G03X1666260Y453757I30570J114082*
X1780345Y541300J118107*
X1784370Y571870I114083J30570*
X1696827Y685955I118108*
G01X1620570Y706387*
G02X1591390Y744415I10190J38027*
X1609580Y777603I39370*
G01X1772377Y881495*
G03X1829428Y985582I66424J104087*
X1812886Y1047320I123475*
X1705953Y1109057I106932J61737*
X1649025Y1095150J123475*
G01X1474285Y1004360*
G02X1457885Y1000355I16399J31562*
X1422316Y1035923J35568*
X1423528Y1045128I35569*
G01X1444428Y1123126*
G03X1448453Y1153697I114082J30571*
X1360911Y1267781I118107*
X1330341Y1271806I30570J114082*
X1216256Y1184265J118107*
G01X1123011Y836267*
G02X1103135Y811521I38028J10190*
G01X1031125Y774107*
G02X1012972Y769672I18152J34935*
X973602Y809042J39370*
X974945Y819232I39370*
G01X1067075Y1163070*
G03X1071770Y1198735I133097J35665*
X969640Y1331833I137792*
X933973Y1336528I35666J133097*
X800875Y1234397J137792*
G01X624841Y577432*
G02X604965Y552685I38027J10188*
G01X413260Y453080*
G02X395107Y448646I18152J34935*
X370267Y457471J39370*
G03X208152Y551068I372598J458165*
G02X182853Y586105I14032J36785*
G01X173261Y801930*
G02X173222Y803678I39331J1747*
X184753Y831517I39370*
G01X665685Y1312448*
G03X706045Y1409885I97432J97436*
X665685Y1507320I137792*
X568250Y1547681I97435J97432*
X470813Y1507320J137792*
G01X219107Y1255615*
G02X191268Y1244083I27839J27837*
X151937Y1281705J39370*
G01X148550Y1357945*
G02X148510Y1359692I39330J1747*
X160041Y1387531I39370*
G01X419622Y1647112*
G03X454217Y1730628I83514J83515*
X419622Y1814145I118109*
X336105Y1848740I83517J83514*
X252590Y1814145J118108*
G01X196765Y1758320*
G02X168926Y1746790I27839J27839*
X129595Y1784411J39370*
G01X121020Y1977345*
G03X-2332Y2095337I123353J5482*
X-125686Y1977345J123475*
G01X-134430Y1780620*
G02X-169963Y1746631I35533J1579*
X-195113Y1757048J35568*
G01X-252212Y1814147*
G03X-335728Y1848741I83515J83514*
X-419245Y1814147J118107*
X-453840Y1730630I83514J83517*
X-419245Y1647115I118108*
G01X-164493Y1392362*
G02X-152961Y1364523I27839J27839*
X-153000Y1362775I39371*
G01X-156603Y1281705*
G02X-195935Y1244083I39332J1747*
X-223775Y1255615J39370*
G01X-475480Y1507320*
G03X-572915Y1547681I97435J97432*
X-670351Y1507320J137792*
X-710711Y1409885I97432J97435*
X-670351Y1312448I137792*
G01X-189420Y831517*
G02X-177888Y803678I27838J27839*
X-177927Y801930I39370*
G01X-187520Y586105*
G02X-212818Y551068I39331J1747*
G03X-374933Y457471I210483J551762*
G02X-399773Y448646I24840J30545*
X-417925Y453080J39370*
G01X-609631Y552685*
G02X-629507Y577432I18151J34935*
G01X-805541Y1234397*
G03X-938640Y1336528I133098J35662*
X-974305Y1331833J137792*
X-1076437Y1198735I35660J133098*
X-1071741Y1163070I137792*
G01X-979610Y819232*
G02X-978270Y809042I38029J10190*
X-1017640Y769672I39370*
X-1035790Y774107J39370*
G01X-1103510Y809291*
G02X-1123386Y834038I18152J34936*
G01X-1218400Y1188632*
G03X-1332485Y1276173I114085J30567*
X-1363055Y1272148J118107*
X-1450596Y1158065I30567J114083*
X-1446571Y1127493I118108*
G01X-1426138Y1051236*
G02X-1424796Y1041046I38027J10190*
X-1464166Y1001676I39370*
X-1482318Y1006110J39370*
G01X-1653690Y1095150*
G03X-1710620Y1109057I56929J109567*
X-1817552Y1047320J123475*
X-1834095Y985582I106932J61737*
X-1777045Y881495I123475*
G01X-1611047Y775561*
G02X-1594613Y745578I19133J29982*
X-1620976Y711222I35567*
G01X-1698975Y690322*
G03X-1786515Y576238I30567J114084*
X-1782490Y545668I118107*
X-1668406Y458126I114084J30566*
X-1637835Y462151J118108*
G01X-1289838Y555397*
G02X-1279648Y556738I10190J38029*
X-1258468Y550556J39370*
G01X-1190062Y506901*
G02X-1171871Y473713I21178J33187*
X-1201051Y435685I39370*
G01X-1544888Y343555*
G03X-1647020Y210455I35660J133099*
X-1642325Y174790I137792*
X-1509226Y72658I133098J35660*
X-1473560Y77355J137792*
G01X-816595Y253387*
G02X-806405Y254728I10190J38029*
X-785226Y248546J39370*
G01X-603112Y132327*
G02X-584921Y99140I21178J33187*
X-585420Y92900I39370*
G03X-592883Y-696I583080J93596*
X-585420Y-94293I590543J1*
G02X-584921Y-100533I38871J6240*
X-603112Y-133721I39370*
G01X-785226Y-249940*
G02X-806405Y-256123I21179J33187*
X-816595Y-254781J39370*
G01X-1473560Y-78748*
G03X-1509226Y-74052I35665J133097*
X-1642325Y-176185J137792*
X-1647020Y-211850I133097J35665*
X-1544888Y-344948I137792*
G01X-1201052Y-437080*
G02X-1171871Y-475107I10188J38027*
X-1190062Y-508295I39370*
G01X-1254392Y-549350*
G02X-1275572Y-555531I21180J33188*
X-1285761Y-554190J39370*
G01X-1640355Y-459176*
G03X-1670926Y-455151I30570J114084*
X-1785010Y-542693J118109*
X-1789035Y-573263I114082J30570*
X-1701495Y-687348I118107*
G01X-1625236Y-707781*
G02X-1596056Y-745810I10190J38028*
X-1614246Y-778997I39370*
G01X-1777045Y-882890*
G03X-1834095Y-986976I66425J104085*
X-1817552Y-1048715I123475*
X-1710620Y-1110452I106932J61738*
X-1653690Y-1096545J123476*
G01X-1478950Y-1005755*
G02X-1462551Y-1001748I16399J31562*
X-1426983Y-1037317J35569*
X-1428195Y-1046523I35567*
G01X-1449095Y-1124520*
G03X-1453120Y-1155091I114083J30570*
X-1365578Y-1269175I118108*
X-1335007Y-1273200I30570J114082*
X-1220923Y-1185660J118107*
G01X-1127677Y-837661*
G02X-1107800Y-812915I38027J10190*
G01X-1035790Y-775501*
G02X-1017640Y-771066I18150J34936*
X-978270Y-810437J39371*
X-979610Y-820626I39370*
G01X-1071741Y-1164463*
G03X-1076437Y-1200128I133096J35665*
X-974305Y-1333227I137792*
X-938640Y-1337923I35665J133097*
X-805541Y-1235791J137792*
G01X-629508Y-578826*
G02X-609631Y-554080I38028J10189*
G01X-417925Y-454475*
G02X-399773Y-450040I18152J34935*
X-374933Y-458866J39370*
G03X-212818Y-552463I372598J458166*
G02X-187520Y-587500I14032J36784*
G01X-177927Y-803325*
G02X-177888Y-805072I39330J1747*
X-189420Y-832911I39370*
G01X-670351Y-1313843*
G03X-710711Y-1411280I97432J97436*
X-670351Y-1508715I137792*
X-572915Y-1549075I97435J97432*
X-475480Y-1508715J137792*
G01X-223775Y-1257010*
G02X-195935Y-1245478I27839J27838*
X-156603Y-1283100J39370*
G01X-153215Y-1359338*
G02X-153176Y-1361086I39330J1747*
X-164707Y-1388925I39370*
G01X-424288Y-1648506*
G03X-458883Y-1732022I83513J83516*
X-424288Y-1815540I118108*
X-340772Y-1850133I83515J83514*
X-257255Y-1815540J118107*
G01X-201431Y-1759715*
G02X-173592Y-1748183I27838J27837*
X-134261Y-1785805J39370*
G01X-125686Y-1978738*
G03X-2332Y-2096731I123353J5482*
X121020Y-1978738J123475*
G01X129763Y-1782015*
G02X165296Y-1748025I35532J1578*
X190447Y-1758442J35567*
G01X247545Y-1815541*
G03X331062Y-1850135I83517J83513*
X414578Y-1815541J118107*
X449173Y-1732025I83512J83516*
X414578Y-1648508I118107*
G01X159827Y-1393756*
G02X148295Y-1365917I27837J27838*
X148335Y-1364170I39370*
G01X151937Y-1283100*
G02X191268Y-1245478I39330J1747*
X219107Y-1257010J39370*
G01X470813Y-1508715*
G03X568250Y-1549075I97436J97432*
X665685Y-1508715J137792*
X706045Y-1411280I97432J97435*
X665685Y-1313843I137792*
G01X184753Y-832911*
G02X173222Y-805072I27839J27838*
X173261Y-803325I39370*
G01X182853Y-587500*
G02X208152Y-552463I39331J1747*
G03X370267Y-458866I210483J551763*
G02X395107Y-450040I24840J30544*
X413260Y-454475J39370*
G01X604965Y-554080*
G02X624841Y-578826I18151J34935*
G01X800875Y-1235791*
G03X933973Y-1337923I133097J35660*
X969640Y-1333227J137792*
X1071770Y-1200128I35662J133099*
X1067075Y-1164463I137792*
G01X974945Y-820626*
G02X973602Y-810437I38027J10188*
X1012972Y-771066I39370*
X1031125Y-775501J39371*
G01X1098843Y-810685*
G02X1118720Y-835432I18152J34935*
G01X1213733Y-1190026*
G03X1327817Y-1277567I114084J30566*
X1358388Y-1273542J118107*
X1445930Y-1159458I30567J114084*
X1441905Y-1128887I118108*
G01X1421471Y-1052630*
G02X1420130Y-1042440I38029J10190*
X1459500Y-1003070I39370*
X1477652Y-1007505J39370*
G01X1649025Y-1096545*
G03X1705953Y-1110452I56928J109569*
X1812886Y-1048715J123476*
X1829428Y-986976I106932J61738*
X1772377Y-882890I123475*
G01X1606381Y-776955*
G02X1589947Y-746972I19134J29982*
X1616310Y-712616I35567*
G01X1694307Y-691717*
G03X1781850Y-577632I30566J114085*
X1777825Y-547062I118108*
X1663740Y-459520I114084J30565*
X1633170Y-463545J118107*
G01X1285171Y-556791*
G02X1274982Y-558132I10188J38028*
X1253802Y-551950J39370*
G01X1185396Y-508295*
G02X1167205Y-475107I21179J33187*
X1196385Y-437078I39370*
G01X1540222Y-344948*
G03X1642355Y-211850I35662J133098*
X1637658Y-176185I137794*
X1504560Y-74052I133098J35660*
X1468895Y-78748J137792*
G01X811930Y-254781*
G02X801740Y-256123I10190J38027*
X780560Y-249940J39370*
G01X598446Y-133721*
G02X580255Y-100533I21179J33187*
X580753Y-94293I39370*
G03X588217Y-697I583080J93595*
G01Y-696*
Y-695*
G03X580753Y92900I590543*
G02X580255Y99140I38872J6240*
X598446Y132327I39370*
G01X780560Y248546*
G02X801740Y254728I21180J33187*
X811928Y253387J39370*
G01X1468895Y77355*
G03X1504560Y72658I35665J133096*
X1637658Y174790J137792*
X1642355Y210455I133097J35665*
X1540222Y343555I137794*
G01X1196385Y435685*
G02X1167205Y473713I10190J38028*
X1185395Y506901I39370*
G01X1249726Y547955*
G02X1270905Y554137I21179J33187*
X1281095Y552795J39370*
G01X1635690Y457782*
G03X1666260Y453757I30570J114082*
X1780345Y541300J118107*
X1784370Y571870I114083J30570*
X1696827Y685955I118108*
G01X1620570Y706387*
G02X1591390Y744415I10190J38027*
X1609580Y777603I39370*
G01X1772377Y881495*
G03X1829428Y985582I66424J104087*
X1812886Y1047320I123475*
X1705953Y1109057I106932J61737*
X1649025Y1095150J123475*
G01X1474285Y1004360*
G02X1457885Y1000355I16399J31562*
X1422316Y1035923J35568*
X1423528Y1045128I35569*
G01X1444428Y1123126*
G03X1448453Y1153697I114082J30571*
X1360911Y1267781I118107*
X1330341Y1271806I30570J114082*
X1216256Y1184265J118107*
G01X1123011Y836267*
G02X1103135Y811521I38028J10190*
G01X1031125Y774107*
G02X1012972Y769672I18152J34935*
X973602Y809042J39370*
X974945Y819232I39370*
G01X1067075Y1163070*
G03X1071770Y1198735I133097J35665*
X969640Y1331833I137792*
X933973Y1336528I35666J133097*
X800875Y1234397J137792*
G01X624841Y577432*
G02X604965Y552685I38027J10188*
G01X413260Y453080*
G02X395107Y448646I18152J34935*
X370267Y457471J39370*
G03X208152Y551068I372598J458165*
G02X182853Y586105I14032J36785*
G01X173261Y801930*
G02X173222Y803678I39331J1747*
X184753Y831517I39370*
G01X665685Y1312448*
G03X706045Y1409885I97432J97436*
X665685Y1507320I137792*
X568250Y1547681I97435J97432*
X470813Y1507320J137792*
G01X219107Y1255615*
G02X191268Y1244083I27839J27837*
X151937Y1281705J39370*
G01X148550Y1357945*
G02X148510Y1359692I39330J1747*
X160041Y1387531I39370*
G01X419622Y1647112*
G03X454217Y1730628I83514J83515*
X419622Y1814145I118109*
X336106Y1848740I83516J83514*
X252590Y1814145J118108*
G01X196765Y1758320*
G02X168926Y1746790I27839J27839*
X129595Y1784411J39370*
G01X121020Y1977345*
G03X-2332Y2095337I123353J5482*
X-125686Y1977345J123475*
G01X-134430Y1780620*
G02X-169963Y1746631I35533J1579*
X-195113Y1757048J35568*
G01X-252212Y1814147*
G03X-335728Y1848741I83515J83514*
X-419245Y1814147J118107*
X-453840Y1730630I83514J83517*
X-419245Y1647115I118108*
G01X-164493Y1392362*
G02X-152961Y1364523I27837J27839*
X-153000Y1362775I39370*
G01X-156603Y1281705*
G02X-195935Y1244083I39332J1747*
X-223775Y1255615J39370*
G01X-475480Y1507320*
G03X-572915Y1547681I97435J97432*
X-670351Y1507320J137792*
X-710711Y1409885I97432J97435*
X-670351Y1312448I137792*
G01X-189420Y831517*
G02X-177888Y803678I27838J27839*
X-177927Y801930I39370*
G01X-187520Y586105*
G02X-212818Y551068I39331J1747*
G03X-374933Y457471I210483J551762*
G02X-399773Y448646I24840J30545*
X-417925Y453080J39370*
G01X-609631Y552685*
G02X-629507Y577432I18151J34935*
G01X-805541Y1234397*
G03X-938640Y1336528I133098J35662*
X-974305Y1331833J137792*
X-1076437Y1198735I35662J133098*
X-1071741Y1163070I137794*
G01X-979610Y819232*
G02X-978270Y809042I38029J10190*
X-1017640Y769672I39370*
X-1035790Y774107J39370*
G01X-1103510Y809291*
G02X-1123386Y834038I18152J34936*
G01X-1218400Y1188632*
G03X-1332483Y1276173I114083J30567*
X-1363055Y1272148J118107*
X-1450595Y1158065I30567J114083*
X-1446571Y1127493I118107*
G01X-1426137Y1051236*
G02X-1424796Y1041046I38028J10190*
X-1464166Y1001676I39370*
X-1482318Y1006110J39370*
G01X-1653690Y1095150*
G03X-1710620Y1109057I56929J109567*
X-1817552Y1047320J123475*
X-1834095Y985582I106932J61737*
X-1777045Y881495I123475*
G01X-1611047Y775561*
G02X-1594613Y745578I19133J29982*
X-1620976Y711222I35567*
G01X-1698975Y690322*
G03X-1786515Y576238I30567J114084*
X-1782490Y545668I118107*
X-1668406Y458126I114084J30566*
X-1637835Y462151J118108*
G01X-1289838Y555397*
G02X-1279648Y556738I10190J38029*
X-1258468Y550556J39370*
G01X-1190062Y506901*
G02X-1171871Y473713I21178J33187*
X-1201051Y435685I39370*
G01X-1544888Y343555*
G03X-1647020Y210455I35660J133099*
X-1642325Y174790I137792*
X-1509225Y72658I133099J35660*
X-1473560Y77355J137792*
G01X-816595Y253387*
G02X-806405Y254728I10190J38029*
X-785225Y248546J39370*
G01X-603112Y132327*
G02X-584921Y99140I21178J33187*
X-585420Y92900I39370*
G03X-592883Y-696I583080J93596*
X-585420Y-94293I590543J1*
G02X-584921Y-100533I38871J6240*
X-603112Y-133721I39370*
G01X-785225Y-249940*
G02X-806405Y-256123I21180J33187*
X-816595Y-254781J39370*
G01X-1473560Y-78748*
G03X-1509225Y-74052I35665J133097*
X-1642325Y-176185J137792*
X-1647020Y-211850I133097J35665*
X-1544888Y-344948I137792*
G01X-1201051Y-437080*
G02X-1171871Y-475107I10190J38027*
X-1190062Y-508295I39370*
G01X-1254392Y-549350*
G02X-1275572Y-555531I21180J33188*
X-1285761Y-554190J39370*
G01X-1640355Y-459176*
G03X-1670926Y-455151I30570J114084*
X-1785010Y-542693J118109*
X-1789035Y-573263I114082J30570*
X-1701495Y-687348I118107*
G01X-1625236Y-707781*
G02X-1596056Y-745810I10190J38028*
X-1614246Y-778997I39370*
G01X-1777045Y-882890*
G03X-1834095Y-986976I66425J104085*
X-1817552Y-1048715I123475*
X-1710620Y-1110452I106932J61738*
X-1653690Y-1096545J123476*
G01X-1478950Y-1005755*
G02X-1462551Y-1001748I16399J31562*
X-1426983Y-1037317J35569*
X-1428195Y-1046523I35567*
G01X-1449095Y-1124520*
G03X-1453120Y-1155091I114083J30570*
X-1365578Y-1269175I118108*
X-1335007Y-1273200I30570J114082*
X-1220923Y-1185660J118107*
G01X-1127677Y-837661*
G02X-1107800Y-812915I38027J10190*
G01X-1035790Y-775501*
G02X-1017640Y-771066I18150J34936*
X-978270Y-810437J39371*
X-979610Y-820626I39370*
G01X-1071741Y-1164463*
G03X-1076437Y-1200128I133097J35665*
X-974305Y-1333227I137794*
X-938640Y-1337923I35665J133097*
X-805541Y-1235791J137792*
G01X-629507Y-578826*
G02X-609631Y-554080I38027J10189*
G01X-417925Y-454475*
G02X-399773Y-450040I18152J34935*
X-374933Y-458866J39370*
G03X-212818Y-552463I372598J458166*
G02X-187520Y-587500I14032J36784*
M02*
