*
G04 Job   : C:\Projects\3. 12th May to\2. Siemens\2. Daves Training\ShrouksSnowflake\PCB\Board1.pcb*
G04 User  : DESKTOP-H15QKG3:shrou*
G04 Layer : SoldermaskBottom.gdo*
G04 Date  : Fri Dec 05 17:28:02 2025*
G04 Mentor Graphics Example Gerber Output Definition*
%ICAS*%
%MOIN*%
%FSLAX26Y26*%
%OFA0.0000B0.0000*%
G90*
G74*
%AMVB_RCRECTANGLE*
$3=$3X2*
21,1,$1-$3,$2,0,0,0*
21,1,$1,$2-$3,0,0,0*
$1=$1/2*
$2=$2/2*
$3=$3/2*
$1=$1-$3*
$2=$2-$3*
1,1,$3X2,0-$1,0-$2*
1,1,$3X2,0-$1,$2*
1,1,$3X2,$1,$2*
1,1,$3X2,$1,0-$2*
%
%ADD10C,0.03200*%
%ADD11VB_RCRECTANGLE,0.14961X0.13386X0.00394*%
G01*
G54D10*
X-1345635Y-767050D03*
X-1283670Y754408D03*
X-965243Y-550713D03*
X-962827Y549805D03*
X-872046Y-500156D03*
X-845300Y487301D03*
X-510943Y297002D03*
X-509023Y-301753D03*
X-100000Y-850000D03*
Y-500000D03*
Y-50000D03*
Y100000D03*
Y250000D03*
X-75881Y549647D03*
X-66285Y836535D03*
X-1750Y1345595D03*
X-35Y1759115D03*
X0Y-1920291D03*
Y-1497672D03*
Y-938530D03*
Y-800000D03*
Y-500000D03*
Y-50000D03*
Y100000D03*
Y250000D03*
Y800000D03*
Y1263153D03*
X907Y-1373112D03*
X61243Y836535D03*
X68125Y549647D03*
X100000Y-850000D03*
Y-500000D03*
Y-50000D03*
Y100000D03*
Y250000D03*
X508180Y290117D03*
X513990Y-282977D03*
X836765Y-482405D03*
X854640Y490038D03*
X957282Y-547298D03*
X957925Y546150D03*
X1289282Y-742841D03*
X1308180Y740117D03*
G54D11*
X0Y-677165D03*
Y677165D03*
M02*
