*
G04 Job   : C:\Projects\3. 12th May to\2. Siemens\2. Daves Training\ShrouksSnowflake\PCB\Board1.pcb*
G04 User  : DESKTOP-H15QKG3:shrou*
G04 Layer : SoldermaskTop.gdo*
G04 Date  : Fri Dec 05 17:28:02 2025*
G04 Mentor Graphics Example Gerber Output Definition*
%ICAS*%
%MOIN*%
%FSLAX26Y26*%
%OFA0.0000B0.0000*%
G90*
G74*
%AMVB_RECTANGLE*
21,1,$1,$2,0,0,$3*
%
%AMVB_RCRECTANGLE*
$3=$3X2*
21,1,$1-$3,$2,0,0,0*
21,1,$1,$2-$3,0,0,0*
$1=$1/2*
$2=$2/2*
$3=$3/2*
$1=$1-$3*
$2=$2-$3*
1,1,$3X2,0-$1,0-$2*
1,1,$3X2,0-$1,$2*
1,1,$3X2,$1,$2*
1,1,$3X2,$1,0-$2*
%
%ADD10C,0.03200*%
%ADD15VB_RECTANGLE,0.03740X0.03740X30.00000*%
%ADD14VB_RECTANGLE,0.03740X0.03740X90.00000*%
%ADD16VB_RECTANGLE,0.03740X0.03740X148.00000*%
%ADD11VB_RECTANGLE,0.05709X0.03740X180.00000*%
%ADD13VB_RECTANGLE,0.05709X0.03740X58.00000*%
%ADD12VB_RECTANGLE,0.05709X0.03740X120.00000*%
%ADD17VB_RCRECTANGLE,0.14961X0.13386X0.00394*%
G01*
G54D10*
X-1345635Y-767050D03*
X-1283670Y754408D03*
X-965243Y-550713D03*
X-962827Y549805D03*
X-872046Y-500156D03*
X-845300Y487301D03*
X-510943Y297002D03*
X-509023Y-301753D03*
X-100000Y-850000D03*
Y-500000D03*
Y-50000D03*
Y100000D03*
Y250000D03*
X-75881Y549647D03*
X-66285Y836535D03*
X-1750Y1345595D03*
X-35Y1759115D03*
X0Y-1920291D03*
Y-1497672D03*
Y-938530D03*
Y-800000D03*
Y-500000D03*
Y-50000D03*
Y100000D03*
Y250000D03*
Y800000D03*
Y1263153D03*
X907Y-1373112D03*
X61243Y836535D03*
X68125Y549647D03*
X100000Y-850000D03*
Y-500000D03*
Y-50000D03*
Y100000D03*
Y250000D03*
X508180Y290117D03*
X513990Y-282977D03*
X836765Y-482405D03*
X854640Y490038D03*
X957282Y-547298D03*
X957925Y546150D03*
X1289282Y-742841D03*
X1308180Y740117D03*
G54D11*
X0Y-1839370D03*
Y-1760630D03*
Y-1289370D03*
Y-1210630D03*
Y1110630D03*
Y1189370D03*
Y1610630D03*
Y1689370D03*
G54D12*
X-1275676Y-728945D03*
X-1207485Y-689575D03*
X-813048Y-478945D03*
X-744857Y-439575D03*
X722356Y412000D03*
X790547Y451370D03*
X1174085Y670432D03*
X1242276Y709802D03*
G54D13*
X-1233387Y720862D03*
X-1166611Y679136D03*
X-783387Y470862D03*
X-716611Y429136D03*
X710880Y-413683D03*
X777656Y-455410D03*
X1160880Y-663683D03*
X1227656Y-705410D03*
G54D14*
X0Y-1629527D03*
Y-1570471D03*
Y-1079527D03*
Y-1020471D03*
Y920471D03*
Y979527D03*
Y1420471D03*
Y1479527D03*
G54D15*
X-1075571Y-614763D03*
X-1024427Y-585235D03*
X-625570Y-364763D03*
X-574427Y-335235D03*
X582608Y325353D03*
X633752Y354881D03*
X1021665Y587140D03*
X1072808Y616667D03*
G54D16*
X-1075040Y615646D03*
X-1024958Y584352D03*
X-625040Y365646D03*
X-574958Y334352D03*
X565018Y-326476D03*
X615100Y-357770D03*
X1013335Y-576476D03*
X1063416Y-607770D03*
G54D17*
X0Y-677165D03*
Y677165D03*
M02*
