; Version : LOCAL
; Job     : C:\Projects\3. 12th May to\2. Siemens\2. Daves Training\ShrouksSnowflake\PCB\Board1.pcb
; User    : DESKTOP-H15QKG3:shrou
; Date    : Fri Dec 05 17:27:11 2025
; Format  : 3.3 / Absolute / MM / Leading
; Contents: Thru / Drill / Plated
M48
METRIC,TZ
FMAT,2
ICI,OFF
T01C0.483
%
M71
G90
G93X0Y0
T01
X0Y-48775
Y-38041
X23Y-34877
X0Y-23839
X2540Y-21590
X0Y-20320
X-2540Y-21590
X-34179Y-19483
X32748Y-18868
X-24517Y-13988
X-22150Y-12704
X-2540Y-12700
X0
X2540
X24315Y-13901
X21254Y-12253
X-12929Y-7665
X13055Y-7188
X2540Y-1270
X0
X-2540
Y2540
X0
X2540
X12908Y7369
X2540Y6350
X0
X-2540
X-12978Y7544
X21708Y12447
X-21471Y12377
X-24456Y13965
X-1927Y13961
X1730
X24331Y13872
X-32605Y19162
X33228Y18799
X1556Y21248
X0Y20320
X-1684Y21248
X0Y32084
X-44Y34178
X-1Y44682
T00
M30
